# xmcd
#
# Track frame offsets: 
#        150
#        10403
#        22341
#        36811
#        46573
#        64319
#        74363
#        86110
#        96680
#        108082
#        118624
#        130753
#        142001
#
# Disc length: 2015 seconds
#
# Revision: 0
# Processed by: cddbd v1.5.1PL0 Copyright (c) Steve Scherf et al.
# Submitted via: ExactAudioCopy v0.95b2
#
DISCID=bb07dd0d
DTITLE=The Starliners - Re Bop
DYEAR=1997
DGENRE=Country
TTITLE0=Careful Baby
TTITLE1=Cadillac in Model A
TTITLE2=Well Oh Well
TTITLE3=Crazy Blues
TTITLE4=I Had Someone Else
TTITLE5=Hide And Seek
TTITLE6=Baby I'll Be Gone
TTITLE7=Re Bop
TTITLE8=Strings Of Life
TTITLE9=Tulsa Baby
TTITLE10=My Heart
TTITLE11=Hot Rod Rig
TTITLE12=Love Me
EXTD=
EXTT0=
EXTT1=
EXTT2=
EXTT3=
EXTT4=
EXTT5=
EXTT6=
EXTT7=
EXTT8=
EXTT9=
EXTT10=
EXTT11=
EXTT12=
PLAYORDER=
